<svg xmlns="http://www.w3.org/2000/svg" width="1770" height="1446" viewBox="0 0 1770 1446" version="1.1"><path d="M 1310.092 252.084 C 1299.681 253.432, 1292.781 256.009, 1278.031 264.061 C 1258.819 274.547, 1237.140 307.188, 1231.463 334.177 C 1229.284 344.534, 1229.838 346.493, 1232.574 338.107 C 1252.293 277.676, 1307.565 245.159, 1356.500 265.199 C 1364.500 268.475, 1364.500 268.475, 1358 269.206 C 1315.842 273.945, 1281.788 294.597, 1258.076 329.807 C 1247.735 345.162, 1243.553 356.221, 1250.321 350.313 C 1285.620 319.499, 1346.871 314.473, 1377.995 339.837 C 1392.013 351.262, 1407.431 373.649, 1395.956 365.919 C 1391.712 363.060, 1385.708 360.013, 1376.172 355.880 C 1345.473 342.574, 1299.390 344.821, 1266.248 361.241 C 1256.113 366.262, 1256.228 366.581, 1267.031 363.402 C 1316.081 348.965, 1357.818 351.770, 1398.328 372.225 C 1407.779 376.998, 1407.698 377.053, 1404.457 368.071 C 1382.619 307.529, 1306.873 295.770, 1254.250 344.752 C 1246.875 351.617, 1246.603 351.532, 1252.202 344.116 C 1262.871 329.985, 1274.634 317.646, 1288.212 306.341 C 1308.190 289.709, 1349.986 272, 1369.263 272 C 1375.033 272, 1370.778 268.401, 1355.592 260.438 C 1346.617 255.732, 1338.821 253.291, 1328.722 252.024 C 1319.704 250.894, 1319.269 250.895, 1310.092 252.084 M 1125.500 259.705 C 1104.014 262.612, 1072.708 283.006, 1088.041 284.109 C 1115.638 286.094, 1163.644 303.714, 1172 314.925 C 1172.275 315.294, 1174.075 316.692, 1176 318.030 C 1185.364 324.542, 1211.456 350.452, 1210.389 352.180 C 1209.953 352.886, 1210.141 353.031, 1210.892 352.567 C 1213.729 350.813, 1201.374 333.281, 1187.941 320 C 1163.136 295.476, 1130.017 280.821, 1098.854 280.582 C 1092.999 280.537, 1088.364 280.242, 1088.554 279.927 C 1105.109 252.450, 1178.837 269.894, 1207.124 307.980 C 1209.787 311.566, 1212.376 314.993, 1212.878 315.595 C 1215.920 319.249, 1224.210 335.509, 1227.498 344.272 C 1231.813 355.773, 1229.784 346.357, 1224.315 329.500 C 1217.398 308.183, 1196.957 281.934, 1179.500 271.953 C 1177.300 270.696, 1173.670 268.624, 1171.433 267.350 C 1160.309 261.014, 1140.365 257.695, 1125.500 259.705 M 1123 328.004 C 1097.964 332.054, 1077.053 347.106, 1065.972 369.054 C 1062.397 376.136, 1061.753 377.961, 1058.937 389 C 1055.884 400.967, 1055.772 400.901, 1066.635 393.536 C 1100.512 370.565, 1149.895 359.867, 1190 366.811 C 1203.724 369.187, 1203.880 369.189, 1198.500 366.924 C 1159.164 350.364, 1099.466 359.550, 1067.878 387.025 C 1060.919 393.078, 1060.574 393.127, 1062.767 387.750 C 1083.626 336.603, 1145.409 319.508, 1202.332 349.134 C 1209.683 352.960, 1210.660 352.227, 1204.341 347.628 C 1183.464 332.431, 1148.208 323.925, 1123 328.004 M 1262 367.021 C 1257.500 367.700, 1257.500 367.700, 1261.500 367.853 C 1306.801 369.590, 1350.285 399.901, 1362.133 438 C 1365.135 447.653, 1365.545 474.048, 1362.786 480 C 1361.749 482.236, 1361.134 482.841, 1361.082 481.676 C 1360.096 459.648, 1313.417 400, 1297.164 400 C 1296.615 400, 1296.017 399.660, 1295.833 399.245 C 1294.860 397.042, 1269.321 387.030, 1261 385.590 C 1258.375 385.136, 1259.625 386.063, 1266 389.299 C 1301.076 407.105, 1320.275 422.647, 1338.603 448.071 C 1345.674 457.878, 1354.644 474.478, 1358.020 484 C 1361.208 492.995, 1361.428 493.041, 1364.367 485.331 C 1378.294 448.796, 1370.292 414.637, 1342.603 392.428 C 1339.910 390.268, 1337.210 388.044, 1336.603 387.486 C 1323.200 375.162, 1282.341 363.953, 1262 367.021 M 1219.917 415.921 C 1213.535 417.185, 1200 427.234, 1200 430.708 C 1200 431.419, 1199.640 432, 1199.199 432 C 1194.093 432, 1178.021 479.979, 1177.994 495.301 C 1177.957 516.989, 1142.985 567.286, 1125.687 570.531 C 1110.789 573.326, 1110.324 567.697, 1121.009 513.880 C 1122.605 505.839, 1124.841 493.464, 1125.978 486.380 C 1127.114 479.296, 1128.484 470.763, 1129.022 467.418 C 1137.108 417.124, 1099.647 414.291, 1071.054 463.035 C 1061.911 478.621, 1058.735 484.497, 1052.965 496.501 C 1049.264 504.201, 1045.014 513.426, 1043.522 517.001 C 1042.030 520.575, 1040.228 524.850, 1039.516 526.500 C 1036.572 533.332, 1024 567.133, 1024 568.218 C 1024 570.569, 1019.633 580, 1018.545 580 C 1015.456 580, 1016.977 567.399, 1023.979 535 C 1032.921 493.625, 1034.243 485.179, 1034.388 468.500 C 1034.673 435.499, 1016.560 427.115, 993.539 449.591 C 980.803 462.026, 959.178 501.636, 946.092 536.500 C 944.854 539.800, 943.495 543.175, 943.074 544 C 942.652 544.825, 939.493 554.275, 936.054 565 C 928.088 589.843, 928.027 590, 926.347 590 C 922.841 590, 923.302 585.445, 930.550 548.500 C 944.681 476.477, 942.982 458.952, 922 460.287 C 897.851 461.823, 878.199 505.156, 878.020 557.268 C 877.974 570.650, 852.972 609.657, 839.310 617.664 C 822.443 627.549, 817.442 611.164, 824.762 570 C 834.951 512.698, 834.679 493.872, 823.583 488.606 C 814.979 484.524, 801.312 490.299, 794.847 500.750 C 791.706 505.829, 789.327 505.078, 788.509 498.750 C 786.168 480.633, 774.520 480.021, 749.722 496.714 C 676.064 546.298, 655.049 690, 721.456 690 C 740.346 690, 757.843 672.817, 770.843 641.500 C 777.748 624.863, 777.083 625.591, 778.608 633 C 783.288 655.728, 794.463 669.670, 807.706 669.302 C 832.727 668.606, 855.475 647.377, 878.970 602.794 C 880.328 600.216, 881.520 598.195, 881.619 598.303 C 881.717 598.411, 882.742 602.977, 883.897 608.449 C 889.540 635.182, 903.753 648.011, 921.792 642.654 C 933.034 639.316, 935.370 635.749, 940.081 614.722 C 943.263 600.525, 943.438 599.910, 950.534 578 C 961.661 543.649, 981.004 503.035, 986.250 503.009 C 988.469 502.998, 988.438 504.026, 985.985 512 C 970.558 562.131, 968.873 607.285, 981.673 627.500 C 989.868 640.442, 1003.481 641.632, 1014.107 630.335 C 1022.863 621.026, 1026.089 614.283, 1037.478 581.500 C 1051.848 540.134, 1059.830 521.218, 1070.684 502.806 C 1076.469 492.992, 1084.851 486.741, 1081.474 494.758 C 1060.880 543.653, 1060.380 603.074, 1080.459 615.478 C 1105.023 630.653, 1136.235 608.015, 1174.870 547 C 1176.415 544.561, 1176.482 544.711, 1177.623 553.216 C 1187.504 626.849, 1246.533 611.620, 1288.927 524.500 C 1304.413 492.677, 1306.210 484.303, 1297.942 482.487 C 1292.065 481.196, 1289.608 483.282, 1283.982 494.340 C 1268.123 525.511, 1260.643 536.839, 1248.052 548.754 C 1234.047 562.007, 1222.031 561.102, 1219.014 546.567 C 1217.340 538.502, 1219.151 527.482, 1227.900 492.500 C 1238.615 449.657, 1240.785 430.728, 1235.965 422.152 C 1232.780 416.484, 1227.474 414.424, 1219.917 415.921 M 637.500 447.662 C 595.272 453.778, 556.778 526.370, 549.437 613.734 C 548.593 623.769, 546.721 626.292, 544.920 619.821 C 537.820 594.310, 529.358 573.205, 520.744 559.524 C 496.525 521.057, 469.926 500.878, 429 489.924 C 383.772 477.819, 320.965 494.826, 296.416 525.826 C 274.046 554.076, 280.430 590.098, 307.788 589.985 C 314.062 589.959, 314.246 589.564, 314.101 576.370 C 313.805 549.303, 326.223 532.957, 354.358 523.380 C 379.447 514.840, 416.985 520.076, 430.500 534 C 438.533 542.276, 432.642 623.760, 419.620 684.500 C 418.216 691.046, 417.160 695.181, 413.550 708.250 C 391.833 786.880, 352.476 829.462, 307.531 822.955 C 264.882 816.780, 257.644 747.178, 294.929 701.768 C 301.612 693.628, 302.170 691.770, 298.371 690.312 C 296.650 689.652, 293.154 692.989, 285.216 702.873 C 283.172 705.418, 281.258 707.725, 280.963 708 C 280.668 708.275, 278.992 710.750, 277.239 713.500 C 275.487 716.250, 273.627 719.005, 273.107 719.622 C 264.207 730.176, 255.781 758.697, 255.713 778.500 C 255.418 864.143, 364.917 874.175, 423.802 793.900 C 427.191 789.280, 430.322 785.050, 430.760 784.500 C 434.688 779.566, 446.162 757.141, 451.993 743 C 453.241 739.975, 454.634 736.600, 455.090 735.500 C 467.128 706.456, 476.749 653.744, 478.876 605.189 C 479.814 583.775, 480.483 581.637, 484.334 587.737 C 492.005 599.888, 504.427 624.448, 509.504 637.500 C 510.787 640.800, 512.997 646.496, 514.413 650.157 C 515.830 653.818, 519.425 664.007, 522.401 672.799 C 531.573 699.886, 535.453 704, 551.828 704 C 562.994 704, 562.431 704.724, 565.528 686.390 C 571.437 651.411, 576.883 624.194, 581.604 606.049 C 589.500 575.696, 601.547 543.500, 605.008 543.500 C 606.822 543.500, 606.830 543.281, 603.935 574 C 592.572 694.556, 619.810 763.897, 669.321 740.455 C 690.892 730.242, 695.915 702.349, 677.734 693.741 C 665.595 687.993, 662.956 683.335, 657.202 657.500 C 647.910 615.777, 642.987 495.506, 650.226 487.049 C 668.340 465.887, 661.337 444.210, 637.500 447.662 M 772.227 518.215 C 746.073 531.604, 718.919 601.155, 728.538 630.116 C 732.520 642.102, 746.384 642.046, 755.901 630.006 C 761.540 622.872, 761.282 623.835, 775.981 555 C 777.567 547.575, 779.795 537.342, 780.932 532.261 C 784.506 516.291, 782.454 512.980, 772.227 518.215 M 1081.200 671.200 C 1080.540 671.860, 1080 673.096, 1080 673.948 C 1080 681.463, 1067.553 708.233, 1055.653 726.312 C 1044.695 742.959, 1048.535 746.679, 1067.411 737.706 C 1104.797 719.934, 1117.507 679.976, 1088.461 671.532 C 1082.152 669.697, 1082.678 669.722, 1081.200 671.200 M 1398.500 696.723 C 1361.014 705.921, 1322.533 744.387, 1304.185 791 C 1265.257 889.896, 1338.711 939.367, 1385.639 845.859 C 1389.999 837.172, 1390.568 837.261, 1391.310 846.750 C 1394.637 889.274, 1429.084 895.740, 1464.558 860.500 C 1475.265 849.864, 1498 819.893, 1498 816.414 C 1498 816.081, 1498.848 814.614, 1499.885 813.154 C 1500.921 811.694, 1502.875 808.475, 1504.227 806 C 1505.578 803.525, 1508.535 798.106, 1510.797 793.959 C 1513.059 789.811, 1515.212 784.529, 1515.581 782.220 C 1517.686 769.057, 1505.891 767.395, 1498.823 779.859 C 1486.143 802.221, 1462.417 832, 1457.281 832 C 1456.577 832, 1456 832.401, 1456 832.891 C 1456 834.574, 1447.716 837.169, 1444.357 836.539 C 1435.347 834.849, 1433.489 821, 1439.322 799 C 1456.109 735.675, 1458.621 720.553, 1453.988 710.698 C 1448.659 699.362, 1433.119 700.250, 1420.772 712.596 C 1414.760 718.608, 1413 718.134, 1413 710.499 C 1413 698.751, 1408.327 694.311, 1398.500 696.723 M 812.500 707.439 C 767.995 714.876, 724.176 744.008, 700.500 781.900 C 699.950 782.780, 699.258 783.725, 698.962 784 C 698.666 784.275, 696.190 788.325, 693.459 793 C 647.462 871.748, 655.321 991.343, 708 1014.259 C 758.271 1036.127, 829.723 1014.087, 871.667 963.775 C 878.014 956.162, 893.765 930.478, 895.551 924.831 C 895.956 923.549, 897.561 919.800, 899.118 916.500 C 911.621 889.992, 918.331 856.038, 918.386 819 C 918.510 735.850, 880.724 696.038, 812.500 707.439 M 1395 729.268 C 1385.581 733.537, 1360 761.020, 1360 766.872 C 1360 767.401, 1359.640 767.983, 1359.200 768.167 C 1356.730 769.197, 1346.263 795.898, 1343.122 809.183 C 1331.850 856.861, 1364.799 862.993, 1379.754 816 C 1383.483 804.282, 1388.616 788.203, 1401.078 749.201 C 1407.592 728.813, 1406.185 724.200, 1395 729.268 M 1238.500 732.378 C 1228.603 735.614, 1222.100 739.118, 1209.500 748.002 C 1173.733 773.223, 1166.604 773.980, 1163.601 752.872 C 1160.167 728.728, 1130.500 755.730, 1130.500 783 C 1130.500 816.094, 1154.676 821.745, 1184.478 795.618 C 1188.315 792.253, 1192.772 788.375, 1194.382 787 C 1195.992 785.625, 1198.702 783.224, 1200.404 781.663 C 1207.755 774.928, 1210.410 773.491, 1214.775 773.885 C 1219.426 774.305, 1216.888 789.958, 1209.456 806.697 C 1201.754 824.041, 1187.478 849.294, 1182.250 854.821 C 1181.563 855.548, 1181 856.482, 1181 856.896 C 1181 857.501, 1172.670 869.269, 1169.247 873.500 C 1168.802 874.050, 1164.894 879.225, 1160.563 885 C 1156.232 890.775, 1151.423 896.962, 1149.876 898.749 C 1130.866 920.705, 1138.481 929.769, 1164.430 916.073 C 1203.548 895.428, 1217.994 898.617, 1258.500 936.841 C 1303.062 978.892, 1328.606 983.637, 1350.369 953.906 C 1353.707 949.345, 1353.715 949.387, 1349.250 947.940 C 1339.628 944.823, 1326.714 936.491, 1315.341 926.061 C 1312.678 923.620, 1307.800 919.148, 1304.500 916.124 C 1301.200 913.100, 1295.575 907.868, 1292 904.498 C 1250.098 864.995, 1232.519 858.107, 1206.648 871.056 C 1196.572 876.100, 1195.652 875.174, 1202.608 866.993 C 1268.164 789.894, 1287.797 716.260, 1238.500 732.378 M 805.500 739.396 C 765.284 748.038, 736.128 797.731, 729.459 869 C 721.766 951.204, 749.690 994.893, 799.068 977.911 C 876.848 951.161, 883.007 722.740, 805.500 739.396 M 1028.500 763.659 C 1020.152 765.441, 1005.291 772.762, 996.500 779.423 C 990.927 783.646, 970.576 803.763, 968.694 806.908 C 967.841 808.334, 965.875 811.018, 964.324 812.874 C 961.289 816.506, 959.879 818.751, 952.142 832.279 C 922.788 883.600, 923.823 948.877, 954.208 962.513 C 978.532 973.429, 1000.944 958.375, 1020.328 918.100 C 1025.950 906.418, 1026.442 905.718, 1027.078 908.500 C 1031.979 929.932, 1034.488 936.025, 1041.264 942.958 C 1052.904 954.866, 1078.841 948.085, 1098.847 927.903 C 1119.463 907.105, 1146.348 860.021, 1140.250 855.392 C 1133.424 850.210, 1125.107 855.179, 1115.803 869.998 C 1093.804 905.035, 1071.552 911.709, 1071.783 883.200 C 1071.859 873.769, 1072.464 870.168, 1079.460 837.500 C 1090.772 784.671, 1088.868 767.625, 1071.657 767.625 C 1062.980 767.625, 1054.571 772.806, 1047.671 782.403 C 1045.625 785.249, 1044.358 783.699, 1043.624 777.454 C 1042.110 764.576, 1038.714 761.479, 1028.500 763.659 M 1024.390 797.592 C 981.416 826.235, 955.978 934.928, 997.166 913.915 C 1009.081 907.837, 1009.260 907.382, 1028.114 835 C 1029.761 828.675, 1032.038 820.125, 1033.172 816 C 1038.914 795.127, 1036.302 789.653, 1024.390 797.592 M 1226.862 1019.690 C 1222.148 1022.615, 1210.110 1046.927, 1210.027 1053.691 C 1210.012 1054.896, 1209.484 1056.201, 1208.853 1056.591 C 1207.630 1057.347, 1207.844 1054.594, 1209.992 1041.903 C 1213.171 1023.126, 1207.248 1015.543, 1198.750 1027.509 C 1194.391 1033.646, 1186 1054.653, 1186 1059.428 C 1186 1060.357, 1185.639 1060.895, 1185.198 1060.622 C 1184.757 1060.350, 1185.179 1054.614, 1186.136 1047.877 C 1188.028 1034.554, 1187.751 1030.472, 1184.849 1028.919 C 1178.962 1025.769, 1172.188 1037.811, 1172.035 1051.696 C 1171.963 1058.235, 1163.083 1070.432, 1158.832 1069.830 C 1155.602 1069.373, 1155.325 1064.477, 1157.947 1054.207 C 1161.284 1041.138, 1160.539 1034, 1155.839 1034 C 1150.756 1034, 1146.130 1044.042, 1145.335 1056.804 C 1144.694 1067.088, 1143.271 1070.982, 1139.398 1073.055 C 1133.669 1076.121, 1132.764 1071.991, 1135.978 1057.449 C 1139.405 1041.949, 1138.307 1036.481, 1132.190 1038.578 C 1128.806 1039.738, 1124.442 1048.307, 1123.534 1055.576 C 1122.403 1064.626, 1114.358 1078, 1110.046 1078 C 1107.313 1078, 1106.778 1074.876, 1108.183 1067.120 C 1109.916 1057.548, 1109.718 1056.906, 1103.819 1053.001 C 1100.562 1050.845, 1098.938 1048.995, 1098.482 1046.917 C 1097.672 1043.231, 1093.882 1040.562, 1090.618 1041.381 C 1087.734 1042.105, 1086.692 1045.439, 1087.964 1049.873 C 1090.457 1058.566, 1081.579 1081.412, 1074.883 1083.537 C 1068.316 1085.621, 1067.014 1076.830, 1071.768 1062.500 C 1073.410 1057.550, 1075.053 1052.116, 1075.418 1050.424 C 1075.917 1048.115, 1077.024 1046.933, 1079.860 1045.682 C 1089.033 1041.635, 1090.003 1036.524, 1081.536 1036.845 C 1077.001 1037.016, 1077 1037.015, 1077 1033.580 C 1077 1030.347, 1074.950 1027, 1072.969 1027 C 1071.241 1027, 1067.138 1032.369, 1064.092 1038.617 C 1061.875 1043.163, 1060.090 1045.409, 1057.753 1046.590 C 1048.894 1051.067, 1047.381 1055.605, 1055.087 1054.583 C 1058.114 1054.181, 1059.944 1054.281, 1059.606 1054.829 C 1059.293 1055.335, 1058.543 1060.193, 1057.940 1065.625 C 1057.133 1072.884, 1056.152 1076.772, 1054.235 1080.300 C 1045.464 1096.446, 1040.696 1091.876, 1042.818 1069.358 C 1045.602 1039.818, 1028.817 1050.854, 1019.407 1084.750 C 1017.703 1090.888, 1015.322 1093.643, 1016.382 1088.250 C 1020.384 1067.890, 1020.421 1060.395, 1016.526 1059.417 C 1010.933 1058.014, 1006.908 1064.493, 1004.941 1078.065 C 1002.633 1093.997, 990.156 1104.630, 981.635 1097.927 C 978.527 1095.483, 978.304 1093.160, 980.863 1089.885 C 989.155 1079.267, 991.682 1064.667, 985.598 1062.528 C 977.796 1059.784, 968.339 1071.159, 967.076 1084.807 C 965.751 1099.133, 950.172 1112.373, 943.420 1104.912 C 940.420 1101.597, 940.319 1090.021, 943.229 1083.093 C 946.617 1075.025, 954.201 1070.330, 951.261 1078.120 C 948.156 1086.345, 956.649 1089.179, 960.837 1081.316 C 965.562 1072.444, 957.018 1066.041, 946.384 1070.484 C 927.390 1078.420, 924.221 1119, 942.595 1119 C 950.772 1119, 962.348 1110.916, 966.164 1102.539 C 967.657 1099.262, 968.483 1099.337, 969.951 1102.883 C 974.960 1114.974, 1004 1109.841, 1004 1096.864 C 1004 1094.567, 1005.822 1096.430, 1006.967 1099.899 C 1009.533 1107.674, 1017.443 1108.037, 1019.678 1100.482 C 1020.326 1098.292, 1021.794 1093.350, 1022.941 1089.500 C 1026.138 1078.768, 1033.631 1066.510, 1030.860 1076.545 C 1023.780 1102.187, 1041.321 1111.555, 1054.650 1089.250 C 1057.428 1084.602, 1058.516 1084.520, 1059.475 1088.886 C 1060.370 1092.961, 1064.305 1096.324, 1068.054 1096.218 C 1076.779 1095.969, 1085.135 1084.296, 1092.009 1062.750 C 1095.686 1051.226, 1098.150 1057.311, 1095.594 1071.604 C 1091.515 1094.417, 1114.352 1096.522, 1121.502 1073.992 C 1122.494 1070.869, 1123.688 1071.645, 1124.360 1075.850 C 1126.215 1087.450, 1136.534 1087.857, 1144.870 1076.659 C 1146.170 1074.913, 1146.386 1074.977, 1149.064 1077.909 C 1154.833 1084.225, 1164.481 1079.471, 1171.375 1066.915 C 1173.251 1063.500, 1173.251 1063.500, 1174.637 1067.434 C 1179.130 1080.189, 1186.290 1078.239, 1189.874 1063.285 C 1192.853 1050.851, 1200.733 1032.071, 1198.595 1042.500 C 1195.760 1056.325, 1197.234 1070.724, 1201.657 1072.422 C 1206.846 1074.413, 1209.325 1070.658, 1215.470 1051.500 C 1218.479 1042.119, 1224.211 1030.166, 1222.663 1036.500 C 1217.799 1056.408, 1219.598 1067, 1227.843 1067 C 1234.512 1067, 1241.974 1059.292, 1248.629 1045.528 C 1252.554 1037.411, 1252.960 1034, 1250 1034 C 1248.900 1034, 1248 1034.563, 1247.999 1035.250 C 1247.999 1035.938, 1246.691 1039.200, 1245.092 1042.500 C 1238.106 1056.922, 1230.163 1058.679, 1232.903 1045.197 C 1237.133 1024.377, 1234.849 1014.734, 1226.862 1019.690 M 876.444 1056.750 C 875.472 1061.250, 871.807 1071.001, 870.870 1071.580 C 869.317 1072.540, 869.951 1075, 871.750 1074.993 C 876.561 1074.975, 884 1066.664, 884 1061.306 C 884 1055.259, 877.600 1051.400, 876.444 1056.750 M 824.615 1057.088 C 821.632 1059.435, 819.682 1062.812, 817.638 1069.172 C 813.805 1081.102, 812.034 1091.422, 811.329 1105.941 C 810.504 1122.948, 803.965 1135.039, 799.003 1128.732 C 797.886 1127.311, 794.445 1123.561, 791.357 1120.398 C 785.744 1114.648, 785.744 1114.648, 786.335 1108.311 C 787.069 1100.453, 786.543 1099, 782.964 1099 C 777.587 1099, 775 1103.681, 775 1113.409 C 775 1125.813, 766.770 1142.903, 761.324 1141.808 C 759.676 1141.477, 759.532 1140.466, 759.830 1131.356 C 760.159 1121.270, 760.159 1121.270, 755.056 1118.129 C 752.123 1116.325, 749.491 1113.821, 748.869 1112.245 C 746.900 1107.253, 746.317 1106.508, 743.625 1105.549 C 738.862 1103.853, 736.207 1107.684, 737.950 1113.738 C 743.274 1132.232, 724.828 1158.515, 713.425 1148.683 C 710.500 1146.161, 710.500 1146.161, 714.126 1138.815 C 721.822 1123.221, 721.617 1114, 713.574 1114 C 705.560 1114, 699.884 1122.131, 698.382 1135.764 C 697.372 1144.929, 690.323 1156, 685.496 1156 C 680.189 1156, 679.538 1147.356, 683.902 1134.830 C 685.497 1130.248, 687.095 1125.095, 687.453 1123.379 C 687.945 1121.015, 689.024 1119.842, 691.903 1118.544 C 701.991 1113.995, 703.996 1108.402, 695.210 1109.320 C 689.420 1109.925, 689.420 1109.925, 689.186 1106.713 C 688.420 1096.192, 681.218 1098.673, 676.106 1111.217 C 674.415 1115.369, 672.856 1117.249, 668.824 1120 C 660.151 1125.917, 659.605 1129.114, 667.580 1127.289 C 672.156 1126.242, 672.156 1126.242, 671.476 1128.871 C 671.101 1130.317, 670.461 1135.422, 670.053 1140.215 C 669.457 1147.229, 668.786 1149.725, 666.618 1153.002 C 657.234 1167.181, 653.241 1164.868, 656.456 1147.114 C 659.365 1131.045, 657.501 1125.035, 651.082 1129.781 C 647.425 1132.485, 647 1132.519, 647 1130.107 C 647 1119.234, 626.636 1136.601, 621.942 1151.478 C 614.095 1176.343, 604.048 1178.847, 609.013 1154.701 C 615.585 1122.740, 596.959 1131.875, 586.285 1165.848 C 583.048 1176.150, 582.278 1174.567, 584.437 1162.055 C 591.242 1122.621, 572.840 1133.802, 560.663 1176.500 C 560.092 1178.501, 560.447 1171.809, 561.626 1158.323 C 562.522 1148.073, 561.823 1146, 557.466 1146 C 549.347 1146, 544.597 1167.899, 549.366 1183.345 C 552.993 1195.093, 561.730 1195.725, 563.959 1184.401 C 566.332 1172.351, 574.944 1149.315, 573.456 1159 C 568.341 1192.290, 579.834 1202.769, 588.947 1173.125 C 592.544 1161.423, 596.725 1151.392, 597.629 1152.295 C 597.960 1152.627, 597.702 1154.383, 597.056 1156.199 C 589.359 1177.823, 599.866 1191.649, 613.373 1177.669 C 619.607 1171.216, 619.607 1171.216, 620.846 1174.014 C 624.957 1183.301, 635.141 1180.561, 641.338 1168.500 C 642.751 1165.750, 643.928 1164.310, 643.953 1165.300 C 643.979 1166.289, 644.680 1168.414, 645.510 1170.020 C 649.838 1178.388, 658.035 1175.530, 666.975 1162.536 C 670.361 1157.616, 670.361 1157.616, 671.478 1160.936 C 675.492 1172.856, 685.689 1170.835, 695.021 1156.270 C 699.839 1148.750, 699.839 1148.750, 702.401 1153.805 C 712.276 1173.292, 735.349 1159.242, 742.719 1129.254 C 745.890 1116.351, 749.256 1122.499, 746.991 1137.057 C 742.366 1166.787, 766.852 1158.921, 777.807 1127.158 C 779.098 1123.415, 779.024 1123.377, 784.804 1130.783 C 788.466 1135.475, 788.348 1136.545, 784.068 1137.485 C 779.065 1138.584, 775.509 1142.627, 777.245 1145.243 C 781.630 1151.847, 797.824 1148.594, 801.012 1140.469 C 801.679 1138.768, 803.975 1135.638, 806.113 1133.513 C 808.251 1131.387, 810 1129.278, 810 1128.824 C 810 1126.431, 811.610 1128.464, 811.812 1131.111 C 812.312 1137.673, 815.976 1142, 821.033 1142 C 826.515 1142, 827.595 1140.124, 825.408 1134.398 C 821.740 1124.794, 823.430 1114.651, 829.661 1108.862 C 839.299 1099.909, 840.918 1108.682, 831.408 1118.328 C 826.195 1123.616, 826.151 1123.988, 829.969 1130.643 C 837.454 1143.695, 848.539 1141.711, 856.559 1125.883 C 859.187 1120.698, 859.187 1120.698, 861.343 1124.505 C 871.207 1141.919, 896.466 1126.944, 900.739 1101.148 C 901.335 1097.551, 898.603 1096.719, 896.966 1100 C 896.554 1100.825, 895.216 1103.601, 893.993 1106.169 C 891.374 1111.667, 884.906 1118.705, 881.164 1120.128 C 874.976 1122.480, 866.790 1117.359, 870.129 1113.224 C 877.110 1104.583, 880.878 1087.581, 876.519 1084.392 C 869.468 1079.231, 858.897 1090.393, 857.467 1104.509 C 856.884 1110.272, 854.553 1118.326, 852.848 1120.471 C 847.265 1127.496, 846.671 1128, 843.979 1128 C 841.982 1128, 840.521 1127.135, 839.068 1125.096 C 836.402 1121.352, 836.342 1121.642, 840.936 1116.179 C 852.991 1101.848, 844.619 1088.123, 831.250 1100.299 C 828.338 1102.951, 828.297 1101.455, 831.044 1092.880 C 839.246 1067.285, 835.830 1048.267, 824.615 1057.088 M 827.147 1065.750 C 825.032 1075.299, 821.951 1097.405, 822.094 1102 C 822.351 1110.244, 830 1076.140, 830 1066.750 C 830 1059.772, 828.582 1059.275, 827.147 1065.750 M 979.594 1073.678 C 977.257 1080.536, 977.386 1085.355, 979.822 1082.190 C 982.017 1079.337, 984.419 1071.487, 983.535 1070.056 C 982.279 1068.024, 981.175 1069.038, 979.594 1073.678 M 869.913 1092.690 C 867.284 1099.511, 867.759 1106.939, 870.476 1101.500 C 873.071 1096.306, 873.727 1091.567, 871.998 1090.499 C 871.447 1090.158, 870.509 1091.144, 869.913 1092.690 M 711.488 1121.750 C 710.199 1124.855, 708.290 1136, 709.047 1136 C 710.436 1136, 714 1127.014, 714 1123.511 C 714 1119.773, 712.690 1118.854, 711.488 1121.750 M 638.472 1140.469 C 630.947 1149.652, 628.458 1166, 634.584 1166 C 637.704 1166, 639.435 1163.086, 641.414 1154.500 C 642.302 1150.650, 643.656 1144.912, 644.424 1141.750 C 646.237 1134.280, 643.947 1133.787, 638.472 1140.469" stroke="none" fill="#eb7f0a" fill-rule="evenodd"/></svg>